<svg width="132" height="25" viewBox="0 0 132 25" fill="none" xmlns="http://www.w3.org/2000/svg">
<!-- Arka planı beyaz yapan dikdörtgen kaldırıldı -->
<!-- Mevcut içerik - tüm fill değerleri beyaz -->
<path d="M40 4.92857H41.6071V6.53571H40V4.92857ZM41.6071 4.92857H43.2143V6.53571H41.6071V4.92857ZM43.2143 4.92857H44.8214V6.53571H43.2143V4.92857ZM44.8214 4.92857H46.4286V6.53571H44.8214V4.92857ZM46.4286 4.92857H48.0357V6.53571H46.4286V4.92857ZM48.0357 4.92857H49.6429V6.53571H48.0357V4.92857ZM48.0357 6.53571H49.6429V8.14286H48.0357V6.53571ZM46.4286 6.53571H48.0357V8.14286H46.4286V6.53571ZM44.8214 6.53571H46.4286V8.14286H44.8214V6.53571ZM43.2143 6.53571H44.8214V8.14286H43.2143V6.53571ZM41.6071 6.53571H43.2143V8.14286H41.6071V6.53571ZM40 6.53571H41.6071V8.14286H40V6.53571ZM49.6429 6.53571H51.25V8.14286H49.6429V6.53571ZM48.0357 8.14286H49.6429V9.75H48.0357V8.14286ZM49.6429 8.14286H51.25V9.75H49.6429V8.14286ZM49.6429 9.75H51.25V11.3571H49.6429V9.75ZM49.6429 11.3571H51.25V12.9643H49.6429V11.3571ZM48.0357 11.3571H49.6429V12.9643H48.0357V11.3571ZM48.0357 9.75H49.6429V11.3571H48.0357V9.75ZM48.0357 12.9643H49.6429V14.5714H48.0357V12.9643ZM48.0357 14.5714H49.6429V16.1786H48.0357V14.5714ZM46.4286 14.5714H48.0357V16.1786H46.4286V14.5714ZM46.4286 12.9643H48.0357V14.5714H46.4286V12.9643ZM44.8214 12.9643H46.4286V14.5714H44.8214V12.9643ZM44.8214 14.5714H46.4286V16.1786H44.8214V14.5714ZM43.2143 14.5714H44.8214V16.1786H43.2143V14.5714ZM43.2143 12.9643H44.8214V14.5714H43.2143V12.9643ZM41.6071 12.9643H43.2143V14.5714H41.6071V12.9643ZM40 12.9643H41.6071V14.5714H40V12.9643ZM40 14.5714H41.6071V16.1786H40V14.5714ZM41.6071 14.5714H43.2143V16.1786H41.6071V14.5714ZM40 8.14286H41.6071V9.75H40V8.14286ZM41.6071 8.14286H43.2143V9.75H41.6071V8.14286ZM41.6071 9.75H43.2143V11.3571H41.6071V9.75ZM41.6071 11.3571H43.2143V12.9643H41.6071V11.3571ZM40 9.75H41.6071V11.3571H40V9.75ZM40 11.3571H41.6071V12.9643H40V11.3571ZM40 16.1786H41.6071V17.7857H40V16.1786ZM41.6071 16.1786H43.2143V17.7857H41.6071V16.1786ZM41.6071 17.7857H43.2143V19.3929H41.6071V17.7857ZM41.6071 19.3929H43.2143V21H41.6071V19.3929ZM40 19.3929H41.6071V21H40V19.3929ZM40 17.7857H41.6071V19.3929H40V17.7857ZM49.6429 12.9643H51.25V14.5714H49.6429V12.9643ZM52.2613 4.92857H55.4756V8.14286H52.2613V4.92857ZM52.2613 9.75H55.4756V21H52.2613V9.75ZM56.4953 17.7857H58.1025V19.3929H56.4953V17.7857ZM56.4953 16.1786H58.1025V17.7857H56.4953V16.1786ZM58.1025 16.1786H59.7096V17.7857H58.1025V16.1786ZM58.1025 17.7857H59.7096V19.3929H58.1025V17.7857ZM58.1025 14.5714H59.7096V16.1786H58.1025V14.5714ZM59.7096 14.5714H61.3167V16.1786H59.7096V14.5714ZM62.9239 14.5714H64.531V16.1786H62.9239V14.5714ZM64.531 14.5714H66.1382V16.1786H64.531V14.5714ZM64.531 17.7857H66.1382V19.3929H64.531V17.7857ZM66.1382 17.7857H67.7453V19.3929H66.1382V17.7857ZM66.1382 16.1786H67.7453V17.7857H66.1382V16.1786ZM59.7096 12.9643H61.3167V14.5714H59.7096V12.9643ZM61.3167 12.9643H62.9239V14.5714H61.3167V12.9643ZM62.9239 12.9643H64.531V14.5714H62.9239V12.9643ZM62.9239 11.3571H64.531V12.9643H62.9239V11.3571ZM64.531 11.3571H66.1382V12.9643H64.531V11.3571ZM64.531 9.75H66.1382V11.3571H64.531V9.75ZM64.531 8.14286H66.1382V9.75H64.531V8.14286ZM66.1382 8.14286H67.7453V9.75H66.1382V8.14286ZM66.1382 9.75H67.7453V11.3571H66.1382V9.75ZM59.7096 11.3571H61.3167V12.9643H59.7096V11.3571ZM58.1025 11.3571H59.7096V12.9643H58.1025V11.3571ZM58.1025 9.75H59.7096V11.3571H58.1025V9.75ZM58.1025 8.14286H59.7096V9.75H58.1025V8.14286ZM56.4953 8.14286H58.1025V9.75H56.4953V8.14286ZM56.4953 9.75H58.1025V11.3571H56.4953V9.75ZM59.7096 16.1786H61.3167V17.7857H59.7096V16.1786ZM62.9239 16.1786H64.531V17.7857H62.9239V16.1786ZM64.531 16.1786H66.1382V17.7857H64.531V16.1786ZM59.7096 9.75H61.3167V11.3571H59.7096V9.75ZM62.9239 9.75H64.531V11.3571H62.9239V9.75ZM61.3167 11.3571H62.9239V12.9643H61.3167V11.3571ZM61.3167 14.5714H62.9239V16.1786H61.3167V14.5714ZM56.4953 19.3929H58.1025V21H56.4953V19.3929ZM58.1025 19.3929H59.7096V21H58.1025V19.3929ZM64.531 19.3929H66.1382V21H64.531V19.3929ZM66.1382 19.3929H67.7453V21H66.1382V19.3929ZM71.9709 8.14286H73.5781V9.75H71.9709V8.14286ZM70.3638 8.14286H71.9709V9.75H70.3638V8.14286ZM70.3638 9.75H71.9709V11.3571H70.3638V9.75ZM71.9709 9.75H73.5781V11.3571H71.9709V9.75ZM73.5781 8.14286H75.1852V9.75H73.5781V8.14286ZM75.1852 8.14286H76.7924V9.75H75.1852V8.14286ZM76.7924 8.14286H78.3995V9.75H76.7924V8.14286ZM76.7924 9.75H78.3995V11.3571H76.7924V9.75ZM75.1852 9.75H76.7924V11.3571H75.1852V9.75ZM78.3995 9.75H80.0066V11.3571H78.3995V9.75ZM78.3995 11.3571H80.0066V12.9643H78.3995V11.3571ZM78.3995 17.7857H80.0066V19.3929H78.3995V17.7857ZM76.7924 17.7857H78.3995V19.3929H76.7924V17.7857ZM76.7924 11.3571H78.3995V12.9643H76.7924V11.3571ZM75.1852 17.7857H76.7924V19.3929H75.1852V17.7857ZM76.7924 19.3929H78.3995V21H76.7924V19.3929ZM75.1852 19.3929H76.7924V21H75.1852V19.3929ZM73.5781 19.3929H75.1852V21H73.5781V19.3929ZM71.9709 19.3929H73.5781V21H71.9709V19.3929ZM70.3638 19.3929H71.9709V21H70.3638V19.3929ZM70.3638 17.7857H71.9709V19.3929H70.3638V17.7857ZM71.9709 17.7857H73.5781V19.3929H71.9709V17.7857ZM70.3638 16.1786H71.9709V17.7857H70.3638V16.1786ZM68.7566 17.7857H70.3638V19.3929H68.7566V17.7857ZM68.7566 16.1786H70.3638V17.7857H68.7566V16.1786ZM68.7566 14.5714H70.3638V16.1786H68.7566V14.5714ZM68.7566 12.9643H70.3638V14.5714H68.7566V12.9643ZM68.7566 11.3571H70.3638V12.9643H68.7566V11.3571ZM68.7566 9.75H70.3638V11.3571H68.7566V9.75ZM70.3638 11.3571H71.9709V12.9643H70.3638V11.3571ZM70.3638 12.9643H71.9709V14.5714H70.3638V12.9643ZM70.3638 14.5714H71.9709V16.1786H70.3638V14.5714ZM73.5781 17.7857H75.1852V19.3929H73.5781V17.7857ZM73.5781 9.75H75.1852V11.3571H73.5781V9.75ZM76.7924 12.9643H78.3995V14.5714H76.7924V12.9643ZM78.3995 12.9643H80.0066V14.5714H78.3995V12.9643ZM71.9709 14.5714H73.5781V16.1786H71.9709V14.5714ZM73.5781 14.5714H75.1852V16.1786H73.5781V14.5714ZM75.1852 14.5714H76.7924V16.1786H75.1852V14.5714ZM76.7924 14.5714H78.3995V16.1786H76.7924V14.5714ZM78.3995 14.5714H80.0066V16.1786H78.3995V14.5714ZM75.1852 12.9643H76.7924V14.5714H75.1852V12.9643ZM73.5781 12.9643H75.1852V14.5714H73.5781V12.9643ZM71.9709 12.9643H73.5781V14.5714H71.9709V12.9643ZM81.018 4.92857H82.6251V6.53571H81.018V4.92857ZM82.6251 4.92857H84.2323V6.53571H82.6251V4.92857ZM82.6251 6.53571H84.2323V8.14286H82.6251V6.53571ZM82.6251 8.14286H84.2323V9.75H82.6251V8.14286ZM82.6251 9.75H84.2323V11.3571H82.6251V9.75ZM82.6251 11.3571H84.2323V12.9643H82.6251V11.3571ZM82.6251 12.9643H84.2323V14.5714H82.6251V12.9643ZM81.018 12.9643H82.6251V14.5714H81.018V12.9643ZM81.018 14.5714H82.6251V16.1786H81.018V14.5714ZM81.018 16.1786H82.6251V17.7857H81.018V16.1786ZM81.018 17.7857H82.6251V19.3929H81.018V17.7857ZM81.018 19.3929H82.6251V21H81.018V19.3929ZM82.6251 19.3929H84.2323V21H82.6251V19.3929ZM82.6251 17.7857H84.2323V19.3929H82.6251V17.7857ZM82.6251 16.1786H84.2323V17.7857H82.6251V16.1786ZM82.6251 14.5714H84.2323V16.1786H82.6251V14.5714ZM81.018 11.3571H82.6251V12.9643H81.018V11.3571ZM81.018 9.75H82.6251V11.3571H81.018V9.75ZM81.018 8.14286H82.6251V9.75H81.018V8.14286ZM81.018 6.53571H82.6251V8.14286H81.018V6.53571ZM85.252 9.75H86.8591V11.3571H85.252V9.75ZM85.252 8.14286H86.8591V9.75H85.252V8.14286ZM86.8591 8.14286H88.4662V9.75H86.8591V8.14286ZM86.8591 9.75H88.4662V11.3571H86.8591V9.75ZM86.8591 11.3571H88.4662V12.9643H86.8591V11.3571ZM86.8591 12.9643H88.4662V14.5714H86.8591V12.9643ZM86.8591 14.5714H88.4662V16.1786H86.8591V14.5714ZM85.252 14.5714H86.8591V16.1786H85.252V14.5714ZM85.252 12.9643H86.8591V14.5714H85.252V12.9643ZM85.252 11.3571H86.8591V12.9643H85.252V11.3571ZM85.252 16.1786H86.8591V17.7857H85.252V16.1786ZM86.8591 16.1786H88.4662V17.7857H86.8591V16.1786ZM86.8591 17.7857H88.4662V19.3929H86.8591V17.7857ZM86.8591 19.3929H88.4662V21H86.8591V19.3929ZM85.252 19.3929H86.8591V21H85.252V19.3929ZM85.252 17.7857H86.8591V19.3929H85.252V17.7857ZM93.2877 19.3929H94.8948V21H93.2877V19.3929ZM94.8948 19.3929H96.502V21H94.8948V19.3929ZM94.8948 17.7857H96.502V19.3929H94.8948V17.7857ZM94.8948 16.1786H96.502V17.7857H94.8948V16.1786ZM94.8948 14.5714H96.502V16.1786H94.8948V14.5714ZM94.8948 12.9643H96.502V14.5714H94.8948V12.9643ZM94.8948 11.3571H96.502V12.9643H94.8948V11.3571ZM94.8948 9.75H96.502V11.3571H94.8948V9.75ZM93.2877 12.9643H94.8948V14.5714H93.2877V12.9643ZM93.2877 14.5714H94.8948V16.1786H93.2877V14.5714ZM93.2877 16.1786H94.8948V17.7857H93.2877V16.1786ZM93.2877 17.7857H94.8948V19.3929H93.2877V17.7857ZM93.2877 11.3571H94.8948V12.9643H93.2877V11.3571ZM88.4662 9.75H90.0734V11.3571H88.4662V9.75ZM90.0734 9.75H91.6805V11.3571H90.0734V9.75ZM91.6805 9.75H93.2877V11.3571H91.6805V9.75ZM91.6805 8.14286H93.2877V9.75H91.6805V8.14286ZM93.2877 8.14286H94.8948V9.75H93.2877V8.14286ZM93.2877 9.75H94.8948V11.3571H93.2877V9.75ZM90.0734 8.14286H91.6805V9.75H90.0734V8.14286ZM85.252 4.92857H86.8591V6.53571H85.252V4.92857ZM86.8591 4.92857H88.4662V6.53571H86.8591V4.92857ZM86.8591 6.53571H88.4662V8.14286H86.8591V6.53571ZM85.252 6.53571H86.8591V8.14286H85.252V6.53571ZM108.763 19.3929H107.156V17.7857H108.763V19.3929ZM108.763 21H107.156V19.3929H108.763V21ZM107.156 21H105.549V19.3929H107.156V21ZM107.156 19.3929H105.549V17.7857H107.156V19.3929ZM107.156 17.7857H105.549V16.1786H107.156V17.7857ZM107.156 16.1786H105.549V14.5714H107.156V16.1786ZM107.156 14.5714H105.549V12.9643H107.156V14.5714ZM108.763 14.5714H107.156V12.9643H108.763V14.5714ZM108.763 16.1786H107.156V14.5714H108.763V16.1786ZM108.763 17.7857H107.156V16.1786H108.763V17.7857ZM108.763 12.9643H107.156V11.3571H108.763V12.9643ZM107.156 12.9643H105.549V11.3571H107.156V12.9643ZM107.156 11.3571H105.549V9.75H107.156V11.3571ZM107.156 9.75H105.549V8.14286H107.156V9.75ZM108.763 9.75H107.156V8.14286H108.763V9.75ZM108.763 11.3571H107.156V9.75H108.763V11.3571ZM100.728 9.75H99.1204V8.14286H100.728V9.75ZM99.1204 9.75H97.5133V8.14286H99.1204V9.75ZM99.1204 11.3571H97.5133V9.75H99.1204V11.3571ZM99.1204 12.9643H97.5133V11.3571H99.1204V12.9643ZM99.1204 14.5714H97.5133V12.9643H99.1204V14.5714ZM99.1204 16.1786H97.5133V14.5714H99.1204V16.1786ZM99.1204 17.7857H97.5133V16.1786H99.1204V17.7857ZM99.1204 19.3929H97.5133V17.7857H99.1204V19.3929ZM100.728 16.1786H99.1204V14.5714H100.728V16.1786ZM100.728 14.5714H99.1204V12.9643H100.728V14.5714ZM100.728 12.9643H99.1204V11.3571H100.728V12.9643ZM100.728 11.3571H99.1204V9.75H100.728V11.3571ZM100.728 17.7857H99.1204V16.1786H100.728V17.7857ZM105.549 19.3929H103.942V17.7857H105.549V19.3929ZM103.942 19.3929H102.335V17.7857H103.942V19.3929ZM102.335 19.3929H100.728V17.7857H102.335V19.3929ZM102.335 21H100.728V19.3929H102.335V21ZM100.728 21H99.1204V19.3929H100.728V21ZM100.728 19.3929H99.1204V17.7857H100.728V19.3929ZM103.942 21H102.335V19.3929H103.942V21ZM109.775 9.75H111.382V11.3571H109.775V9.75ZM109.775 8.14286H111.382V9.75H109.775V8.14286ZM111.382 8.14286H112.989V9.75H111.382V8.14286ZM111.382 9.75H112.989V11.3571H111.382V9.75ZM111.382 11.3571H112.989V12.9643H111.382V11.3571ZM111.382 12.9643H112.989V14.5714H111.382V12.9643ZM111.382 14.5714H112.989V16.1786H111.382V14.5714ZM109.775 14.5714H111.382V16.1786H109.775V14.5714ZM109.775 12.9643H111.382V14.5714H109.775V12.9643ZM109.775 11.3571H111.382V12.9643H109.775V11.3571ZM109.775 16.1786H111.382V17.7857H109.775V16.1786ZM111.382 16.1786H112.989V17.7857H111.382V16.1786ZM111.382 17.7857H112.989V19.3929H111.382V17.7857ZM111.382 19.3929H112.989V21H111.382V19.3929ZM109.775 19.3929H111.382V21H109.775V19.3929ZM109.775 17.7857H111.382V19.3929H109.775V17.7857ZM117.81 19.3929H119.417V21H117.81V19.3929ZM119.417 19.3929H121.025V21H119.417V19.3929ZM119.417 17.7857H121.025V19.3929H119.417V17.7857ZM119.417 16.1786H121.025V17.7857H119.417V16.1786ZM119.417 14.5714H121.025V16.1786H119.417V14.5714ZM119.417 12.9643H121.025V14.5714H119.417V12.9643ZM119.417 11.3571H121.025V12.9643H119.417V11.3571ZM119.417 9.75H121.025V11.3571H119.417V9.75ZM117.81 12.9643H119.417V14.5714H117.81V12.9643ZM117.81 14.5714H119.417V16.1786H117.81V14.5714ZM117.81 16.1786H119.417V17.7857H117.81V16.1786ZM117.81 17.7857H119.417V19.3929H117.81V17.7857ZM117.81 11.3571H119.417V12.9643H117.81V11.3571ZM112.989 9.75H114.596V11.3571H112.989V9.75ZM114.596 9.75H116.203V11.3571H114.596V9.75ZM116.203 9.75H117.81V11.3571H116.203V9.75ZM116.203 8.14286H117.81V9.75H116.203V8.14286ZM117.81 8.14286H119.417V9.75H117.81V8.14286ZM117.81 9.75H119.417V11.3571H117.81V9.75ZM114.596 8.14286H116.203V9.75H114.596V8.14286ZM128.465 17.7857H130.072V19.3929H128.465V17.7857ZM128.465 19.3929H130.072V21H128.465V19.3929ZM126.857 19.3929H128.465V21H126.857V19.3929ZM126.857 17.7857H128.465V19.3929H126.857V17.7857ZM125.25 19.3929H126.857V21H125.25V19.3929ZM125.25 17.7857H126.857V19.3929H125.25V17.7857ZM123.643 17.7857H125.25V19.3929H123.643V17.7857ZM123.643 16.1786H125.25V17.7857H123.643V16.1786ZM123.643 14.5714H125.25V16.1786H123.643V14.5714ZM123.643 12.9643H125.25V14.5714H123.643V12.9643ZM123.643 11.3571H125.25V12.9643H123.643V11.3571ZM123.643 9.75H125.25V11.3571H123.643V9.75ZM125.25 14.5714H126.857V16.1786H125.25V14.5714ZM125.25 16.1786H126.857V17.7857H125.25V16.1786ZM125.25 12.9643H126.857V14.5714H125.25V12.9643ZM125.25 11.3571H126.857V12.9643H125.25V11.3571ZM125.25 4.92857H126.857V6.53571H125.25V4.92857ZM125.25 6.53571H126.857V8.14286H125.25V6.53571ZM125.25 8.14286H126.857V9.75H125.25V8.14286ZM125.25 9.75H126.857V11.3571H125.25V9.75ZM123.643 8.14286H125.25V9.75H123.643V8.14286ZM122.036 9.75H123.643V11.3571H122.036V9.75ZM126.857 9.75H128.465V11.3571H126.857V9.75ZM128.465 9.75H130.072V11.3571H128.465V9.75ZM123.643 6.53571H125.25V8.14286H123.643V6.53571ZM122.036 11.3571H123.643V12.9643H122.036V11.3571ZM126.857 11.3571H128.465V12.9643H126.857V11.3571ZM128.465 11.3571H130.072V12.9643H128.465V11.3571Z" fill="white"/>
<rect y="5" width="5" height="5" fill="white"/>
<rect x="15" width="5" height="5" fill="white"/>
<rect x="20" y="5" width="5" height="5" fill="white"/>
<rect x="20" y="15" width="5" height="5" fill="white"/>
<rect y="15" width="5" height="5" fill="white"/>
<rect x="10" y="20" width="5" height="5" fill="white"/>
<rect x="15" y="10" width="5" height="5" fill="white"/>
<rect x="5" y="10" width="5" height="5" fill="white"/>
<rect x="10" y="15" width="5" height="5" fill="white"/>
<rect x="10" y="5" width="5" height="5" fill="white"/>
<rect x="5" y="5" width="5" height="5" fill="white"/>
<rect x="15" y="5" width="5" height="5" fill="white"/>
<rect x="10" width="5" height="5" fill="white"/>
<rect x="5" width="5" height="5" fill="white"/>
<rect x="5" y="15" width="5" height="5" fill="white"/>
<rect x="15" y="20" width="5" height="5" fill="white"/>
<rect y="10" width="5" height="5" fill="white"/>
</svg>